<?xml version="1.0" encoding="UTF-8" standalone="no"?>
<!DOCTYPE svg PUBLIC "-//W3C//DTD SVG 1.1//EN" "http://www.w3.org/Graphics/SVG/1.1/DTD/svg11.dtd">
<svg width="100%" height="100%" viewBox="0 0 32 32" version="1.1" xmlns="http://www.w3.org/2000/svg" xmlns:xlink="http://www.w3.org/1999/xlink" xml:space="preserve" xmlns:serif="http://www.serif.com/" style="fill-rule:evenodd;clip-rule:evenodd;stroke-linejoin:round;stroke-miterlimit:2;">
    <path d="M20.833,2.591L21.507,0.963C21.648,0.623 22.038,0.461 22.378,0.602C22.718,0.743 22.88,1.133 22.739,1.473L22.064,3.101C22.316,3.92 23.237,6.737 24.25,7.75C25.263,8.763 28.08,9.684 28.899,9.936L30.527,9.261C30.867,9.12 31.257,9.282 31.398,9.622C31.539,9.962 31.377,10.352 31.037,10.493L29.409,11.167C29.009,11.924 27.667,14.568 27.667,16C27.667,17.432 29.009,20.076 29.409,20.833L31.037,21.507C31.377,21.648 31.539,22.038 31.398,22.378C31.257,22.718 30.867,22.88 30.527,22.739L28.899,22.064C28.08,22.316 25.263,23.237 24.25,24.25C23.237,25.263 22.316,28.08 22.064,28.899L22.739,30.527C22.88,30.867 22.718,31.257 22.378,31.398C22.038,31.539 21.648,31.377 21.507,31.037L20.833,29.409C20.076,29.009 17.432,27.667 16,27.667C14.568,27.667 11.924,29.009 11.167,29.409L10.493,31.037C10.352,31.377 9.962,31.539 9.622,31.398C9.282,31.257 9.12,30.867 9.261,30.527L9.936,28.899C9.684,28.08 8.763,25.263 7.75,24.25C6.737,23.237 3.92,22.316 3.101,22.064L1.473,22.739C1.133,22.88 0.743,22.718 0.602,22.378C0.461,22.038 0.623,21.648 0.963,21.507L2.591,20.833C2.991,20.076 4.333,17.432 4.333,16C4.333,14.568 2.991,11.924 2.591,11.167L0.963,10.493C0.623,10.352 0.461,9.962 0.602,9.622C0.743,9.282 1.133,9.12 1.473,9.261L3.101,9.936C3.92,9.684 6.737,8.763 7.75,7.75C8.763,6.737 9.684,3.92 9.936,3.101L9.261,1.473C9.12,1.133 9.282,0.743 9.622,0.602C9.962,0.461 10.352,0.623 10.493,0.963L11.167,2.591C11.924,2.991 14.568,4.333 16,4.333C17.432,4.333 20.076,2.991 20.833,2.591ZM20.071,27.571L16,17.742L11.929,27.571C13.19,27.004 14.911,26.333 16,26.333C17.089,26.333 18.81,27.004 20.071,27.571ZM27.061,21.303L17.232,17.232L21.303,27.061C21.794,25.768 22.537,24.077 23.307,23.307C24.077,22.537 25.768,21.794 27.061,21.303ZM10.697,27.061L14.768,17.232L4.939,21.303C6.232,21.794 7.923,22.537 8.693,23.307C9.463,24.077 10.206,25.768 10.697,27.061ZM27.571,11.929L17.742,16L27.571,20.071C27.004,18.81 26.333,17.089 26.333,16C26.333,14.911 27.004,13.19 27.571,11.929ZM4.429,11.929C4.996,13.19 5.667,14.911 5.667,16C5.667,17.089 4.996,18.81 4.429,20.071L14.258,16L4.429,11.929ZM10.697,4.939C10.206,6.232 9.463,7.923 8.693,8.693C7.923,9.463 6.232,10.206 4.939,10.697L14.768,14.768L10.697,4.939ZM21.303,4.939L17.232,14.768L27.061,10.697C25.768,10.206 24.077,9.463 23.307,8.693C22.537,7.923 21.794,6.232 21.303,4.939ZM20.071,4.429C18.81,4.996 17.089,5.667 16,5.667C14.911,5.667 13.19,4.996 11.929,4.429L16,14.258L20.071,4.429Z" style="fill:url(#_Linear1);"/>
    <path d="M19.064,7.942L19.071,7.942C19.153,7.943 19.236,7.96 19.317,7.993C19.397,8.026 19.467,8.073 19.526,8.131L19.531,8.135C19.545,8.149 19.559,8.164 19.571,8.179L19.582,8.192C19.619,8.239 19.651,8.292 19.676,8.35L19.679,8.358C19.681,8.363 19.684,8.369 19.686,8.375C19.742,8.522 20.435,10.3 21.068,10.932C21.7,11.565 23.478,12.258 23.625,12.314L23.65,12.324C23.708,12.349 23.761,12.381 23.808,12.418L23.821,12.429C23.836,12.441 23.851,12.455 23.865,12.469L23.869,12.474C23.927,12.533 23.974,12.603 24.007,12.683C24.04,12.764 24.057,12.847 24.058,12.929L24.058,12.936C24.058,12.956 24.057,12.975 24.055,12.995L24.054,13.011C24.047,13.071 24.032,13.131 24.009,13.19L24.005,13.197C24.003,13.203 24,13.209 23.998,13.215C23.934,13.359 23.167,15.105 23.167,16C23.167,16.895 23.934,18.641 23.998,18.785L24.009,18.81C24.032,18.869 24.047,18.929 24.054,18.989L24.055,19.005C24.057,19.025 24.058,19.044 24.058,19.064L24.058,19.071C24.057,19.153 24.04,19.236 24.007,19.317C23.974,19.397 23.927,19.467 23.869,19.526L23.865,19.531C23.851,19.545 23.836,19.559 23.821,19.571L23.808,19.582C23.761,19.619 23.708,19.651 23.65,19.676L23.642,19.679C23.637,19.681 23.631,19.684 23.625,19.686C23.478,19.742 21.7,20.435 21.068,21.068C20.435,21.7 19.742,23.478 19.686,23.625L19.676,23.65C19.651,23.708 19.619,23.761 19.582,23.808L19.571,23.821C19.559,23.836 19.545,23.851 19.531,23.865L19.526,23.869C19.467,23.927 19.397,23.974 19.317,24.007C19.236,24.04 19.153,24.057 19.071,24.058L19.064,24.058C19.044,24.058 19.025,24.057 19.005,24.055L18.989,24.054C18.929,24.047 18.869,24.032 18.81,24.009L18.803,24.005C18.797,24.003 18.791,24 18.785,23.998C18.641,23.934 16.895,23.167 16,23.167C15.105,23.167 13.359,23.934 13.215,23.998L13.19,24.009C13.131,24.032 13.071,24.047 13.011,24.054L12.995,24.055C12.975,24.057 12.956,24.058 12.936,24.058L12.929,24.058C12.847,24.057 12.764,24.04 12.683,24.007C12.603,23.974 12.533,23.927 12.474,23.869L12.469,23.865C12.455,23.851 12.441,23.836 12.429,23.821L12.418,23.808C12.381,23.761 12.349,23.708 12.324,23.65L12.321,23.642C12.319,23.637 12.316,23.631 12.314,23.625C12.258,23.478 11.565,21.7 10.932,21.068C10.3,20.435 8.522,19.742 8.375,19.686L8.35,19.676C8.292,19.651 8.239,19.619 8.192,19.582L8.179,19.571C8.164,19.559 8.149,19.545 8.135,19.531L8.131,19.526C8.073,19.467 8.026,19.397 7.993,19.317C7.96,19.236 7.943,19.153 7.942,19.071L7.942,19.064C7.942,19.044 7.943,19.025 7.945,19.005L7.946,18.989C7.953,18.929 7.968,18.869 7.991,18.81L7.995,18.803C7.997,18.797 8,18.791 8.002,18.785C8.066,18.641 8.833,16.895 8.833,16C8.833,15.105 8.066,13.359 8.002,13.215L7.991,13.19C7.968,13.131 7.953,13.071 7.946,13.011L7.945,12.995C7.943,12.975 7.942,12.956 7.942,12.936L7.942,12.929C7.943,12.847 7.96,12.764 7.993,12.683C8.026,12.603 8.073,12.533 8.131,12.474L8.135,12.469C8.149,12.455 8.164,12.441 8.179,12.429L8.192,12.418C8.239,12.381 8.292,12.349 8.35,12.324L8.358,12.321C8.363,12.319 8.369,12.316 8.375,12.314C8.522,12.258 10.3,11.565 10.932,10.932C11.565,10.3 12.258,8.522 12.314,8.375L12.324,8.35C12.349,8.292 12.381,8.239 12.418,8.192L12.429,8.179C12.441,8.164 12.455,8.149 12.469,8.135L12.474,8.131C12.533,8.073 12.603,8.026 12.683,7.993C12.764,7.96 12.847,7.943 12.929,7.942L12.936,7.942C12.956,7.942 12.975,7.943 12.995,7.945L13.011,7.946C13.071,7.953 13.131,7.968 13.19,7.991L13.197,7.995C13.203,7.997 13.209,8 13.215,8.002C13.359,8.066 15.105,8.833 16,8.833C16.895,8.833 18.641,8.066 18.785,8.002L18.81,7.991C18.869,7.968 18.929,7.953 18.989,7.946L19.005,7.945C19.025,7.943 19.044,7.942 19.064,7.942ZM17.86,22.234L16,17.742L14.14,22.234C14.783,22.024 15.504,21.833 16,21.833C16.496,21.833 17.217,22.024 17.86,22.234ZM12.908,21.723L14.768,17.232L10.277,19.092C10.88,19.399 11.524,19.774 11.875,20.125C12.226,20.476 12.601,21.12 12.908,21.723ZM21.723,19.092L17.232,17.232L19.092,21.723C19.399,21.12 19.774,20.476 20.125,20.125C20.476,19.774 21.12,19.399 21.723,19.092ZM9.766,14.14C9.976,14.783 10.167,15.504 10.167,16C10.167,16.496 9.976,17.217 9.766,17.86L14.258,16L9.766,14.14ZM22.234,14.14L17.742,16L22.234,17.86C22.024,17.217 21.833,16.496 21.833,16C21.833,15.504 22.024,14.783 22.234,14.14ZM12.908,10.277C12.601,10.88 12.226,11.524 11.875,11.875C11.524,12.226 10.88,12.601 10.277,12.908L14.768,14.768L12.908,10.277ZM19.092,10.277L17.232,14.768L21.723,12.908C21.12,12.601 20.476,12.226 20.125,11.875C19.774,11.524 19.399,10.88 19.092,10.277ZM14.14,9.766L16,14.258L17.86,9.766C17.217,9.976 16.496,10.167 16,10.167C15.504,10.167 14.783,9.976 14.14,9.766Z" style="fill:url(#_Linear2);"/>
    <defs>
        <linearGradient id="_Linear1" x1="0" y1="0" x2="1" y2="0" gradientUnits="userSpaceOnUse" gradientTransform="matrix(1.95943e-15,32,-32,1.95943e-15,16,0)"><stop offset="0" style="stop-color:rgb(75,75,136);stop-opacity:1"/><stop offset="1" style="stop-color:rgb(50,45,86);stop-opacity:1"/></linearGradient>
        <linearGradient id="_Linear2" x1="0" y1="0" x2="1" y2="0" gradientUnits="userSpaceOnUse" gradientTransform="matrix(9.79717e-16,16,-16,9.79717e-16,16,8)"><stop offset="0" style="stop-color:rgb(125,110,176);stop-opacity:1"/><stop offset="1" style="stop-color:rgb(75,75,137);stop-opacity:1"/></linearGradient>
    </defs>
</svg>
